<svg viewBox="0 0 1080 1080" fill="none" xmlns="http://www.w3.org/2000/svg">
  <path d="M0 0h1080v1080H0z"/>
  <path d="M828.161 363.843c-28.438-.137-56.876-.059-85.315-.039-27.321 0-30.79 2.953-35.494 30.16-.333 1.917-.49 3.854-.823 5.77-8.192 47.374-16.267 94.786-24.616 142.139-10.427 59.207-20.873 118.414-31.653 177.561-6.115 33.565-10.093 67.579-18.893 100.615-9.173 34.424-41.433 57.798-76.535 56.839-36.631-.977-66.284-25.505-73.83-61.495-4.135-19.735-7.859-39.568-11.406-59.441-11.819-66.444-23.48-132.907-35.181-199.37-7.33-41.642-14.542-83.304-21.951-124.926-2.92-16.411-5.86-32.841-9.466-49.134-2.078-9.369-5.998-18.425-17.796-18.484-35.455-.234-70.89-.371-106.345.079-10.975.137-16.757 7.198-16.855 18.307-.039 5.399.549 10.856 1.47 16.176 8.741 50.053 17.698 100.066 26.419 150.1 8.526 48.898 16.738 97.856 25.283 146.755 10.211 58.463 20.658 116.868 30.928 175.331 7.036 40.116 13.68 80.292 20.99 120.35 3.508 19.264 8.134 22.594 27.4 22.614 53.76.04 107.52 0 161.281 0 54.936 0 109.853.04 164.789-.02 16.091-.02 21.344-4.44 24.773-20.267.569-2.66 1.039-5.34 1.49-8.019 8.545-48.899 17.032-97.817 25.616-146.697 8.643-49.29 17.424-98.56 26.047-147.85 10.231-58.444 20.462-116.907 30.555-175.39 7.33-42.424 14.817-84.81 21.422-127.332 2.665-17.134-4.606-24.274-22.343-24.352l.039.02Z" fill="#000"/>
  <path d="M631.424 303.603c-23.587-21.265-56.212-37.718-61.996-58.417-3.784-13.538 43.742-27.565 11.176-47.891-10.293-6.437-17.273-14.575-18.528-22.244-3.451-20.913 25.508-20.659 34.252-35.782 7.804-13.499-4.294-42.59-18.469-49.124-23.547-10.858-45.349 3.013-60.25-1.604-14.411-4.46-15.078-6.789-30.174-7.102-26.508-.567-50.879 30.637-74.701 19.016-16.567-8.119-20.312-33.18-41.977-34.412-9.038-.509-17.685 3.56-23.841 10.153-12.333 13.206-13.979 31.537-14.156 48.851-.157 14.711.471 29.834-4.451 43.724-5.764 16.218-18.979 30.421-18.645 47.637.255 14.067 9.803 26.411 20.979 34.98 1.705 1.311 3.47 2.543 5.254 3.756-7.999 3.561-13.195 12.873-17.744 20.953-20.214 35.821-53.29 64.247-91.816 78.88-12.078 4.578-24.802 7.923-35.625 14.966-10.823 7.024-19.685 18.918-18.626 31.772.823 9.938 7.215 18.389 11.176 27.526 8.156 18.878 9.352 45.387 29.997 50.708 9.666 2.485 19.822-1.213 26.528-8.588 14.489-15.944 13.94-36.701 17.587-56.128 2.784-14.849 9.313-30.597 22.978-37.132 5.921-2.836 12.627-3.619 18.646-6.201 23.743-10.173 29.292-43.314 51.663-56.246 11.744-6.788 27.174-6.143 45.722.881-18.587-9.449-29.194-24.611-49.82-24.611-13.823 0-21.645 15.357-28.194 30.91-10.176 24.142-28.39 39.401-46.095 42.179-6.96 1.096-8.371-5.517-2.842-6.73 19.351-4.284 33.683-20.267 41.31-44.976 7.549-24.455 20.763-36.31 30.351-39.538 14.038-4.715 29.899 1.252 40.801 11.268.058.059.117.118.196.177 2.196 2.034 5.45-.842 3.607-3.228-8.646-11.152-16.783-14.028-21.959-26.216-5.607-13.244 1.647-22.889 8.509-35.527 3.02-5.576 7.255-10.506 9.372-16.492 3.255-9.176 3.333-19.133 1.843-28.759-1.549-9.977-10.352-13.401-10.352-6.24 0 7.708.196 17.137-4.392 25.354-6.137 10.995-12.901 3.697-10.979-2.504 3.45-11.21 7.764-23.124-.765-30.422-13.823-11.816-13.058-16.687-14.313-26.978-1.333-11.014-1.058-28.308 4.549-41.964 6.568-15.983 23.116-20.64 34.546-11.327 13.803 11.23 20.96 24.083 21.489 29.619 2.666 27.898-31.547 29.072-18.528 42.062 7.47 7.454 41.056-9.801 62.407-3.052 4.647 1.467 9.489 3.972 10.705 6.613 6.235 13.577-21.253 4.812-.275 27.076 11.431 12.149-14.449 7.199-36.212 17.529-20.411 9.703-28.979 17.294-32.665 35.918-4.646 23.457 19.156 19.623 24.9 18.84 29.371-3.991-2.47 28.954-6.626 35.997-3.981 6.73-2.51 17.999 5.215 19.114 7.784 1.095 11.999-4.5 18.724-.489 3.294 1.975 4.372 4.401 4.117 7.062-.451 4.754 3.549 8.745 8.313 8.471h.157a7.9 7.9 0 0 0 5.215-2.387c3.745-3.854 10.353-12.266 6.745-21.089-3.196-7.806-26.939-17.334-23.077-31.146 2.373-8.529 17.038-13.44 39.272-11.757 14.352 1.095 26.233-1.076 35.762-12.443 8.666-10.368 10.96-28.034 31.233-28.034 28.998 0 28.056 26.528 26.115 25.824-17.155-6.3-26.409 3.247-26.664 3.012-11.195-10.055-22.685-3.697-31.292 8.628-13.979 19.994-31.547 9.88-38.624 23.026-6.039 11.21 3.94 23.438-2.53 34.413-1.392 2.347-5.999 5.967-4.529 7.942 2.157 2.915 16.822-9.116 32.449-2.758 17.351 7.062 19.783-7.649 18.822-21.598-.549-7.963 9.921-10.369 17.606-8.726 12.333 2.642 21.861 15.084 24.587 31.967 1.294 8.021.176 16.825 4.45 23.731 2.981 4.832 8.333 8.158 10.274 13.499 2.137 5.888-.49 12.305-1.98 18.39-7.549 30.832 20.273 64.501 52.074 64.266 31.802-.235 64.407-41.807 71.015-72.855 16.861-79.408-40.997-47.754-59.035-63.992l.059.019Zm-72.74-162.201c-41.938 7.59-69.818 45.818-74.916 86.373-2.117 16.766-17.351 11.953-15.744-5.145 2.451-25.981 35.292-61.137 55.055-74.498 26.763-18.097 20.92-25.414 8.195-24.729-16.214.861-30.448 14.888-40.526 10.917-10.607-4.167-1.353-16.59-10.195-22.733-12.352-8.589-35.566 4.206-30.567-6.495 4.431-9.45 34.802-7.474 43.311-.196 7.705 6.593 12.724 16.081 27.37 10.682 13.097-4.832 31.076-25.746 47.997-21.246 21.41 5.693 26.939 40.379-9.98 47.07Zm91.777 201.994c-8.117 5.497-22.841-.9-30.233-8.276-11.293-11.268-13.861-8.158-12.646.959 3.177 23.496-21.116 19.798-16.94 51.726.334 2.465-3.195 3.326-3.98.959-5.568-17.001.745-20.581.745-34.178 0-29.208 21.136-2.954 1.628-36.917-8.137-14.164 7.215-20.287 12.548-11.679 7.391 11.914 46.781 41.573 46.604 11.758 0-2.231 3.137-2.778 3.863-.665 3.45 10.016 7.94 19.837-1.608 26.293l.019.02Z" fill="#000"/>
  <path d="M508.863 337.685c-11.371-9.489-22.547-9.254-31.488-6.398-11.94 3.815-17.292 13.636-18.332 15.436-8.077 13.831-9.116 30.5-9.96 46.483-2.097 39.753 1.157 116.442-6.293 115.621-7.098-.783-4.216-41.749-6.196-74.185-5.254-85.513-12.548-82.989-23.057-91.127-11.352-8.804-31.096-12.149-42.624-8.002-.039 0-.079.039-.118.039-7.333 2.015-5.039 6.065 1.941 6.847 10.372 1.135 17.626 7.669 18.666 13.949 1.548 9.391-4.49 18.097-23.312 15.592-15.352-2.054-30.018.783-30.018 16.062.941 25.061 17.293 44.722 16.548 72.346-.274 9.723-1.921 20.405 3.608 28.426 5.195 7.532 14.979 10.095 22.508 15.279 9.352 6.456 15.038 16.825 21.841 25.961 6.804 9.117 16.215 17.783 27.606 17.881 13.803.118 24.194-11.992 36.664-17.861a62.546 62.546 0 0 1 5.235-2.191c4.607-1.683 7.627-6.124 7.744-11.015.02-.919.02-1.839 0-2.66-.431-9.743-3.235-19.192-5.725-28.602-4.823-18.312-8.411-37.699-5.49-56.187.196-1.252 2.02-1.115 2.02.137.098 19.485 5.137 38.971 14.587 56.03 2.294 4.148 5.705 8.667 10.47 8.589 2.686-.04 5.156-1.644 6.882-3.698 5.607-6.652 3.45-15.553-.196-23.437-2.941-6.339-7.627-15.064-10.451-26.411-.294-1.174 1.373-1.78 1.922-.704 7.744 15.181 18.136 24.454 23.841 26.802 3.627 1.487 7.705-.568 8.646-4.363 5.373-21.539 10.059-43.47 8.333-65.538-1.96-24.943-6.568-43.04-25.802-59.101Z" fill="#000"/>
  <path d="M553.464 538.4c20.347-28.996 40.891-108.268-5.782-139.302-4.105-2.724-1.974 11.481-4.066 32.915-1.421 14.596-6.117 27.136-3.749 28.664 11.209 7.288 8.052 30.212-5.901 58.307-22.34 44.965-53.127 81.544-85.966 115.91.928 5.29 1.875 10.58 2.802 15.87 36.648-34.777 73.77-71.16 102.682-112.364h-.02ZM605.476 622.053c49.468-32.19 115.328-31.565 156.228-40.424 40.899-8.859 84.368-20.671 111.268-48.774 28.136-29.393 34.116-72.124 34.881-108.793.274-13.201.392-26.597-1.784-39.485-.863-5.085-9.412-5.085-10.98 0-11.705 38.155-32.959 82.549-57.88 106.623-38.115 36.825-95.014 67.724-155.776 77.835-78.937 13.142-131.777 44.55-145.384 85.482-10.274 30.938 11.94 86.303 75.447 89.843a408.81 408.81 0 0 0-14.137 4.654c-41.351 14.531-80.702 33.911-118.778 55.658-24.509 14.003-48.488 28.983-72.114 44.315-18.293 11.871-39.194 24.505-58.546 33.638-25.391 11.968-48.076 17.874-58.664 7.998-21.097-19.674-.47-62.307 40.175-112.841-1.432-8.097-2.843-16.193-4.275-24.29-29.684 32.992-54.644 67.823-68.996 101.206-26.097 60.742 22.567 108.949 90.387 60.019 2.059-1.486 4.118-2.953 6.177-4.439 43.88-31.584 86.681-61.447 130.052-87.184 52.252-31.016 105.308-56.029 162.011-70.873 17.529-4.595 35.41-8.233 53.723-10.756 31.626-4.341 63.761-1.643 90.015 6.825 27.841 8.977 49.036 24.446 55.879 44.961 13.215 39.719-17.332 83.174-82.78 124.419-1.078.684-2.117 1.31-3.176 1.995-1.294 7.373-2.569 14.726-3.863 22.099 77.486-48.833 140.268-95.045 131.876-142.372-6.294-35.554-43.586-58.944-94.838-68.683-41.802-7.959-92.878-6.825-143.993 4.185-1.823.391-3.647.841-5.451 1.271-78.015 1.721-102.661-71.146-36.645-114.073l-.059-.039Z" fill="#000"/>
</svg>
