<svg viewBox="0 0 984 252" fill="none" xmlns="http://www.w3.org/2000/svg">
  <path d="M623.433 125.904v86.432c0 1.612.025 3.236-.205 4.822-.525 3.662-2.306 5.236-5.995 5.261-7.904.052-15.807.026-23.724.026-21.084 0-42.169.039-63.254-.013-26.836-.077-51.111-19.702-56.67-46.136-4.227-20.128.295-38.284 14.052-53.602 6.994-7.789 16.269-12.224 26.324-14.842 11.452-2.991 23.16-2.617 34.83-2.579 6.533.026 13.066 0 19.599 0 6.955 0 12.438-2.669 15.909-8.948 3.51-6.357 3.01-12.663-.563-18.723-2.281-3.869-5.919-6.074-10.299-6.783-2.703-.438-5.47-.606-8.211-.619-19.599-.051-39.185-.013-58.784-.025-7.366 0-9.607-2.283-9.62-9.736-.013-7.608-.039-15.215.013-22.823.051-6.073 2.049-8.007 8.095-8.007h109.664c7.353 0 8.852 1.457 8.852 8.82.012 29.154 0 58.308 0 87.475h-.013Zm-73.477 55.988c6.533 0 13.053.013 19.586 0 10.03-.039 17.063-7.092 17.165-17.188.116-10.574-6.776-17.833-17.113-17.885a3925.899 3925.899 0 0 0-38.827 0c-9.773.039-16.088 5.493-17.049 15.254-1.051 10.78 4.778 19.845 16.985 19.832h19.241l.012-.013ZM984 126.291v87.476c0 7.543-1.128 8.691-8.455 8.691-27.963 0-55.927-.206-83.877.064-25.991.245-52.495-19.006-57.631-48.367-3.305-18.864.845-36.285 13.885-50.804 8.993-10.006 20.701-14.957 33.78-16.84 15.845-2.282 31.806-.902 47.703-1.199 13.412-.245 21.661-12.662 16.473-25.144-2.139-5.145-6.149-8.188-11.529-9.375-2.472-.554-4.995-.618-7.519-.618-19.714.013-39.415.013-59.129 0-7.942 0-9.877-1.986-9.889-10.058 0-7.608-.026-15.215 0-22.823.025-5.932 1.767-7.685 7.532-7.685h111.047c6.174 0 7.609 1.457 7.609 7.814V126.29Zm-73.003 20.502c-6.071 0-12.156.336-18.189-.09-10.504-.748-19.189 7.169-18.318 18.994.679 9.271 7.058 16.105 16.255 16.156 13.386.078 26.785.078 40.171 0 9.966-.051 16.281-6.872 16.294-17.381 0-10.832-6.11-17.524-16.294-17.679-6.635-.09-13.27-.013-19.919-.013v.013ZM657.071 125.904V39.486c0-1.612 0-3.237.243-4.823.513-3.288 2.383-5.067 5.854-5.054 26.234.038 52.52-.903 78.703.296 32.075 1.47 58.117 22.024 65.483 54.724 1.755 7.789 2.549 15.628 2.536 23.61-.064 34.918-.025 69.823-.038 104.742 0 1.495.09 3.03-.192 4.474-.59 3.043-2.357 4.964-5.649 4.964-9.966.013-19.932.013-29.898 0-2.959 0-4.74-1.637-5.265-4.461-.333-1.792-.371-3.662-.371-5.493-.026-35.37.012-70.752-.026-106.121-.026-17.034-9.774-30.883-25.44-34.815-13.527-3.392-29.27-.516-38.339 11.991-4.112 5.674-6.111 12.07-6.123 19.058-.026 36.762-.013 73.512-.026 110.274 0 1.379.064 2.772-.103 4.139-.422 3.443-2.51 5.403-5.943 5.428-9.851.052-19.702.013-29.565.026-3.126 0-4.957-1.637-5.495-4.616-.308-1.676-.333-3.43-.333-5.158-.013-28.922-.013-57.844-.013-86.767ZM376.757 222.445h-47.434c-5.675 0-7.02-.993-8.058-6.705-2.152-11.889-4.099-23.803-6.174-35.705-3.023-17.343-6.097-34.673-9.095-52.016-2.51-14.506-4.932-29.025-7.429-43.544-2.588-14.842-5.214-29.683-7.789-44.525-.269-1.586-.435-3.21-.435-4.81.025-3.3 1.729-5.39 4.957-5.428 10.427-.142 20.854-.09 31.281-.026 3.472.026 4.625 2.708 5.24 5.48 1.063 4.823 1.934 9.697 2.792 14.57 2.178 12.354 4.304 24.707 6.456 37.06 3.446 19.715 6.866 39.431 10.35 59.146a589.234 589.234 0 0 0 3.356 17.627c2.217 10.677 10.94 17.949 21.713 18.246 10.324.283 19.816-6.654 22.506-16.866 2.588-9.8 3.754-19.883 5.56-29.851 3.164-17.549 6.238-35.111 9.313-52.674 2.446-14.055 4.829-28.11 7.237-42.165.102-.567.141-1.147.243-1.715 1.384-8.071 2.409-8.948 10.44-8.948 8.365 0 16.73-.026 25.094.013 5.214.025 7.353 2.14 6.572 7.22-1.947 12.611-4.151 25.196-6.303 37.781-2.971 17.343-5.982 34.686-8.992 52.029-2.536 14.623-5.124 29.245-7.66 43.867-2.524 14.507-5.022 29.013-7.532 43.519-.141.8-.269 1.586-.436 2.373-1.012 4.693-2.549 6.008-7.288 6.008-16.153.026-32.306 0-48.472 0l-.013.039ZM238.951 123.85c-12.268-11.085-29.236-19.661-32.245-30.45-1.968-7.056 22.751-14.368 5.813-24.963-5.354-3.355-8.984-7.597-9.637-11.594-1.794-10.902 13.267-10.769 17.815-18.652 4.059-7.036-2.233-22.2-9.606-25.606-12.247-5.659-23.586 1.571-31.337-.836-7.495-2.325-7.841-3.538-15.693-3.701-13.787-.296-26.463 15.969-38.853 9.912C116.591 13.728 114.644.665 103.376.022c-4.702-.265-9.199 1.856-12.4 5.293-6.415 6.883-7.271 16.438-7.363 25.463-.082 7.668.245 15.55-2.315 22.791C78.3 62.023 71.427 69.426 71.6 78.4c.133 7.333 5.099 13.767 10.912 18.234a57.851 57.851 0 0 0 2.733 1.958c-4.161 1.856-6.863 6.71-9.23 10.921-10.513 18.672-27.716 33.489-47.754 41.116-6.282 2.387-12.9 4.13-18.529 7.802-5.629 3.66-10.238 9.86-9.687 16.56.428 5.181 3.752 9.586 5.812 14.348 4.242 9.841 4.865 23.658 15.602 26.432 5.028 1.295 10.31-.632 13.798-4.477 7.535-8.311 7.25-19.13 9.147-29.256 1.448-7.74 4.843-15.949 11.951-19.355 3.08-1.479 6.567-1.887 9.698-3.233 12.349-5.302 15.235-22.577 26.87-29.317 6.108-3.539 14.134-3.202 23.781.458-9.668-4.925-15.184-12.828-25.912-12.828-7.19 0-11.258 8.005-14.664 16.112-5.293 12.584-14.766 20.538-23.974 21.986-3.62.571-4.355-2.876-1.479-3.508 10.065-2.233 17.52-10.565 21.486-23.444 3.926-12.747 10.8-18.927 15.786-20.609 7.301-2.458 15.551.652 21.221 5.874a.85.85 0 0 0 .102.091c1.142 1.061 2.835-.438 1.876-1.682-4.497-5.813-8.729-7.312-11.421-13.665-2.917-6.904.856-11.93 4.426-18.518 1.57-2.907 3.773-5.476 4.874-8.597 1.693-4.782 1.733-9.973.958-14.99-.805-5.2-5.384-6.985-5.384-3.253 0 4.018.102 8.933-2.284 13.216-3.192 5.73-6.71 1.927-5.71-1.306 1.794-5.843 4.038-12.053-.398-15.856-7.19-6.16-6.792-8.699-7.444-14.063-.694-5.741-.551-14.755 2.365-21.873 3.416-8.332 12.023-10.759 17.968-5.905 7.179 5.854 10.901 12.553 11.177 15.44 1.387 14.54-16.408 15.153-9.637 21.924 3.885 3.885 21.354-5.11 32.459-1.591 2.416.765 4.935 2.07 5.567 3.447 3.243 7.077-11.054 2.508-.142 14.113 5.945 6.333-7.516 3.753-18.835 9.137-10.616 5.058-15.072 9.014-16.989 18.722-2.417 12.227 9.963 10.228 12.951 9.82 15.276-2.08-1.285 15.093-3.447 18.764-2.07 3.508-1.305 9.382 2.713 9.963 4.048.571 6.24-2.346 9.738-.255 1.713 1.03 2.274 2.294 2.142 3.681-.235 2.478 1.845 4.558 4.323 4.416h.082a4.106 4.106 0 0 0 2.712-1.244c1.948-2.009 5.385-6.394 3.508-10.993-1.662-4.069-14.011-9.035-12.002-16.235 1.234-4.446 8.862-7.005 20.425-6.128 7.465.571 13.645-.561 18.601-6.486 4.507-5.404 5.7-14.613 16.244-14.613 15.082 0 14.593 13.828 13.583 13.46-8.923-3.283-13.736 1.694-13.868 1.571-5.823-5.241-11.799-1.927-16.276 4.497-7.27 10.422-16.407 5.15-20.089 12.003-3.14 5.843 2.05 12.216-1.315 17.937-.724 1.224-3.12 3.11-2.356 4.14 1.122 1.52 8.75-4.752 16.877-1.438 9.025 3.682 10.289-3.987 9.79-11.258-.286-4.15 5.16-5.404 9.157-4.548 6.414 1.377 11.37 7.863 12.788 16.663.673 4.181.091 8.77 2.314 12.369 1.551 2.519 4.334 4.253 5.344 7.037 1.111 3.069-.255 6.414-1.03 9.585-3.926 16.072 10.544 33.621 27.084 33.499 16.541-.122 33.499-21.792 36.936-37.975 8.769-41.392-21.323-24.892-30.705-33.356l.031.01Zm-37.833-84.547c-21.812 3.957-36.313 23.882-38.964 45.022-1.102 8.739-9.025 6.23-8.189-2.682C155.24 68.1 172.321 49.776 182.6 42.81c13.919-9.433 10.88-13.247 4.262-12.89-8.433.449-15.837 7.76-21.078 5.69-5.517-2.172-.704-8.647-5.303-11.849-6.424-4.477-18.498 2.192-15.898-3.386 2.305-4.925 18.101-3.895 22.527-.102 4.007 3.437 6.618 8.383 14.235 5.568 6.812-2.518 16.163-13.42 24.964-11.074 11.135 2.967 14.011 21.047-5.191 24.535Zm47.734 105.289c-4.221 2.865-11.88-.469-15.724-4.314-5.874-5.874-7.21-4.252-6.577.5 1.652 12.247-10.983 10.32-8.811 26.962.173 1.285-1.662 1.733-2.07.499-2.896-8.861.387-10.727.387-17.814 0-15.225 10.993-1.54.847-19.243-4.232-7.383 3.752-10.575 6.526-6.088 3.845 6.21 24.331 21.67 24.24 6.129 0-1.163 1.631-1.448 2.008-.347 1.795 5.221 4.13 10.34-.836 13.705l.01.011Z" fill="#000"/>
  <path d="M175.207 141.614c-5.915-4.946-11.727-4.823-16.377-3.335-6.211 1.989-8.995 7.108-9.535 8.046-4.201 7.21-4.742 15.898-5.18 24.229-1.091 20.722.601 60.696-3.274 60.267-3.691-.408-2.192-21.761-3.222-38.669-2.733-44.573-6.526-43.257-11.992-47.499-5.905-4.589-16.173-6.333-22.17-4.171-.02 0-.04.02-.061.02-3.814 1.051-2.62 3.162 1.01 3.569 5.394.592 9.167 3.998 9.708 7.271.805 4.895-2.335 9.433-12.125 8.128-7.985-1.071-15.612.408-15.612 8.372.49 13.063 8.994 23.311 8.606 37.71-.142 5.068-.999 10.636 1.877 14.817 2.702 3.926 7.791 5.262 11.706 7.964 4.865 3.365 7.822 8.77 11.36 13.532 3.539 4.752 8.434 9.27 14.358 9.321 7.179.061 12.584-6.251 19.07-9.311a32.665 32.665 0 0 1 2.722-1.142c2.397-.877 3.967-3.192 4.028-5.741a29.13 29.13 0 0 0 0-1.387c-.224-5.078-1.682-10.004-2.977-14.909-2.509-9.544-4.375-19.65-2.856-29.287.102-.652 1.051-.581 1.051.072.051 10.156 2.671 20.313 7.587 29.205 1.193 2.162 2.967 4.518 5.445 4.477 1.397-.02 2.682-.857 3.579-1.927 2.917-3.468 1.795-8.107-.102-12.217-1.529-3.304-3.966-7.852-5.435-13.766-.153-.612.714-.928.999-.368 4.028 7.914 9.433 12.747 12.401 13.971a3.321 3.321 0 0 0 4.497-2.274c2.794-11.228 5.231-22.659 4.334-34.162-1.02-13.001-3.417-22.434-13.42-30.806Z" fill="#000"/>
</svg>
